<svg id="my-svg" width="100%" xmlns="http://www.w3.org/2000/svg" xmlns:xlink="http://www.w3.org/1999/xlink" style="max-width: 700px; background-color: transparent;" viewBox="0 0 700 500" role="graphics-document document" aria-roledescription="xychart"><style>#my-svg{font-family:"trebuchet ms",verdana,arial,sans-serif;font-size:16px;fill:#333;}@keyframes edge-animation-frame{from{stroke-dashoffset:0;}}@keyframes dash{to{stroke-dashoffset:0;}}#my-svg .edge-animation-slow{stroke-dasharray:9,5!important;stroke-dashoffset:900;animation:dash 50s linear infinite;stroke-linecap:round;}#my-svg .edge-animation-fast{stroke-dasharray:9,5!important;stroke-dashoffset:900;animation:dash 20s linear infinite;stroke-linecap:round;}#my-svg .error-icon{fill:#552222;}#my-svg .error-text{fill:#552222;stroke:#552222;}#my-svg .edge-thickness-normal{stroke-width:1px;}#my-svg .edge-thickness-thick{stroke-width:3.5px;}#my-svg .edge-pattern-solid{stroke-dasharray:0;}#my-svg .edge-thickness-invisible{stroke-width:0;fill:none;}#my-svg .edge-pattern-dashed{stroke-dasharray:3;}#my-svg .edge-pattern-dotted{stroke-dasharray:2;}#my-svg .marker{fill:#333333;stroke:#333333;}#my-svg .marker.cross{stroke:#333333;}#my-svg svg{font-family:"trebuchet ms",verdana,arial,sans-serif;font-size:16px;}#my-svg p{margin:0;}#my-svg :root{--mermaid-font-family:"trebuchet ms",verdana,arial,sans-serif;}</style><g/><g class="main"><rect width="700" height="500" class="background" fill="white"/><g class="chart-title"><text x="0" y="0" fill="#131300" font-size="20" dominant-baseline="middle" text-anchor="middle" transform="translate(350, 21.55078125) rotate(0)">Crop Recommendation Accuracy Distribution</text></g><g class="plot"><g class="bar-plot-0"><rect x="96.35987694358826" y="81.69394531249998" width="21.06149992752075" height="385.3060546875" fill="#ECECFF" stroke="#ECECFF" stroke-width="0"/><rect x="119.45362686411539" y="74.75967187499998" width="21.06149992752075" height="392.240328125" fill="#ECECFF" stroke="#ECECFF" stroke-width="0"/><rect x="142.54737678464255" y="84.54923437500003" width="21.06149992752075" height="382.450765625" fill="#ECECFF" stroke="#ECECFF" stroke-width="0"/><rect x="165.64112670516968" y="93.93089843749999" width="21.06149992752075" height="373.0691015625" fill="#ECECFF" stroke="#ECECFF" stroke-width="0"/><rect x="188.73487662569684" y="79.24655468750002" width="21.06149992752075" height="387.7534453125" fill="#ECECFF" stroke="#ECECFF" stroke-width="0"/><rect x="211.82862654622397" y="90.66771093749999" width="21.06149992752075" height="376.3322890625" fill="#ECECFF" stroke="#ECECFF" stroke-width="0"/><rect x="234.9223764667511" y="97.1940859375" width="21.06149992752075" height="369.8059140625" fill="#ECECFF" stroke="#ECECFF" stroke-width="0"/><rect x="258.01612638727823" y="86.99662499999998" width="21.06149992752075" height="380.003375" fill="#ECECFF" stroke="#ECECFF" stroke-width="0"/><rect x="281.1098763078054" y="92.70720312499999" width="21.06149992752075" height="374.292796875" fill="#ECECFF" stroke="#ECECFF" stroke-width="0"/><rect x="304.2036262283325" y="102.0888671875" width="21.06149992752075" height="364.9111328125" fill="#ECECFF" stroke="#ECECFF" stroke-width="0"/><rect x="327.29737614885966" y="91.48350781250004" width="21.06149992752075" height="375.5164921875" fill="#ECECFF" stroke="#ECECFF" stroke-width="0"/><rect x="350.3911260693868" y="96.37828906249999" width="21.06149992752075" height="370.6217109375" fill="#ECECFF" stroke="#ECECFF" stroke-width="0"/><rect x="373.4848759899139" y="106.57574999999997" width="21.06149992752075" height="360.42425000000003" fill="#ECECFF" stroke="#ECECFF" stroke-width="0"/><rect x="396.5786259104411" y="95.15459375" width="21.06149992752075" height="371.84540625" fill="#ECECFF" stroke="#ECECFF" stroke-width="0"/><rect x="419.67237583096824" y="100.86517187499999" width="21.06149992752075" height="366.134828125" fill="#ECECFF" stroke="#ECECFF" stroke-width="0"/><rect x="442.76612575149534" y="77.61496093749997" width="21.06149992752075" height="389.3850390625" fill="#ECECFF" stroke="#ECECFF" stroke-width="0"/><rect x="465.8598756720225" y="80.47025000000002" width="21.06149992752075" height="386.52975" fill="#ECECFF" stroke="#ECECFF" stroke-width="0"/><rect x="488.95362559254966" y="85.77292968749998" width="21.06149992752075" height="381.2270703125" fill="#ECECFF" stroke="#ECECFF" stroke-width="0"/><rect x="512.0473755130768" y="89.03611718749998" width="21.06149992752075" height="377.9638828125" fill="#ECECFF" stroke="#ECECFF" stroke-width="0"/><rect x="535.141125433604" y="94.7466953125" width="21.06149992752075" height="372.2533046875" fill="#ECECFF" stroke="#ECECFF" stroke-width="0"/><rect x="558.2348753541311" y="75.57546875000003" width="21.06149992752075" height="391.42453125" fill="#ECECFF" stroke="#ECECFF" stroke-width="0"/><rect x="581.3286252746582" y="82.50974218750002" width="21.06149992752075" height="384.4902578125" fill="#ECECFF" stroke="#ECECFF" stroke-width="0"/><rect x="604.4223751951854" y="97.60198437500003" width="21.06149992752075" height="369.39801562499997" fill="#ECECFF" stroke="#ECECFF" stroke-width="0"/><rect x="627.5161251157125" y="84.95713281249999" width="21.06149992752075" height="382.0428671875" fill="#ECECFF" stroke="#ECECFF" stroke-width="0"/><rect x="650.6098750362396" y="91.075609375" width="21.06149992752075" height="375.924390625" fill="#ECECFF" stroke="#ECECFF" stroke-width="0"/></g></g><g class="bottom-axis"><g class="axis-line"><path d="M 68.03125190734863,468 L 700,468" fill="none" stroke="#131300" stroke-width="2"/></g><g class="label"><text x="0" y="0" fill="#131300" font-size="14" dominant-baseline="text-before-edge" text-anchor="middle" transform="translate(106.89062690734863, 479) rotate(0)">Rice</text><text x="0" y="0" fill="#131300" font-size="14" dominant-baseline="text-before-edge" text-anchor="middle" transform="translate(129.98437682787576, 479) rotate(0)">Wheat</text><text x="0" y="0" fill="#131300" font-size="14" dominant-baseline="text-before-edge" text-anchor="middle" transform="translate(153.07812674840292, 479) rotate(0)">Maize</text><text x="0" y="0" fill="#131300" font-size="14" dominant-baseline="text-before-edge" text-anchor="middle" transform="translate(176.17187666893005, 479) rotate(0)">Cotton</text><text x="0" y="0" fill="#131300" font-size="14" dominant-baseline="text-before-edge" text-anchor="middle" transform="translate(199.2656265894572, 479) rotate(0)">Sugarcane</text><text x="0" y="0" fill="#131300" font-size="14" dominant-baseline="text-before-edge" text-anchor="middle" transform="translate(222.35937650998434, 479) rotate(0)">Potato</text><text x="0" y="0" fill="#131300" font-size="14" dominant-baseline="text-before-edge" text-anchor="middle" transform="translate(245.45312643051147, 479) rotate(0)">Tomato</text><text x="0" y="0" fill="#131300" font-size="14" dominant-baseline="text-before-edge" text-anchor="middle" transform="translate(268.54687635103863, 479) rotate(0)">Onion</text><text x="0" y="0" fill="#131300" font-size="14" dominant-baseline="text-before-edge" text-anchor="middle" transform="translate(291.6406262715658, 479) rotate(0)">Chickpea</text><text x="0" y="0" fill="#131300" font-size="14" dominant-baseline="text-before-edge" text-anchor="middle" transform="translate(314.7343761920929, 479) rotate(0)">Mungbean</text><text x="0" y="0" fill="#131300" font-size="14" dominant-baseline="text-before-edge" text-anchor="middle" transform="translate(337.82812611262005, 479) rotate(0)">Pigeonpeas</text><text x="0" y="0" fill="#131300" font-size="14" dominant-baseline="text-before-edge" text-anchor="middle" transform="translate(360.9218760331472, 479) rotate(0)">Kidneybeans</text><text x="0" y="0" fill="#131300" font-size="14" dominant-baseline="text-before-edge" text-anchor="middle" transform="translate(384.0156259536743, 479) rotate(0)">Blackgram</text><text x="0" y="0" fill="#131300" font-size="14" dominant-baseline="text-before-edge" text-anchor="middle" transform="translate(407.1093758742015, 479) rotate(0)">Lentil</text><text x="0" y="0" fill="#131300" font-size="14" dominant-baseline="text-before-edge" text-anchor="middle" transform="translate(430.20312579472863, 479) rotate(0)">Mothbeans</text><text x="0" y="0" fill="#131300" font-size="14" dominant-baseline="text-before-edge" text-anchor="middle" transform="translate(453.29687571525574, 479) rotate(0)">Mango</text><text x="0" y="0" fill="#131300" font-size="14" dominant-baseline="text-before-edge" text-anchor="middle" transform="translate(476.3906256357829, 479) rotate(0)">Banana</text><text x="0" y="0" fill="#131300" font-size="14" dominant-baseline="text-before-edge" text-anchor="middle" transform="translate(499.48437555631006, 479) rotate(0)">Grapes</text><text x="0" y="0" fill="#131300" font-size="14" dominant-baseline="text-before-edge" text-anchor="middle" transform="translate(522.5781254768372, 479) rotate(0)">Watermelon</text><text x="0" y="0" fill="#131300" font-size="14" dominant-baseline="text-before-edge" text-anchor="middle" transform="translate(545.6718753973644, 479) rotate(0)">Muskmelon</text><text x="0" y="0" fill="#131300" font-size="14" dominant-baseline="text-before-edge" text-anchor="middle" transform="translate(568.7656253178915, 479) rotate(0)">Apple</text><text x="0" y="0" fill="#131300" font-size="14" dominant-baseline="text-before-edge" text-anchor="middle" transform="translate(591.8593752384186, 479) rotate(0)">Orange</text><text x="0" y="0" fill="#131300" font-size="14" dominant-baseline="text-before-edge" text-anchor="middle" transform="translate(614.9531251589458, 479) rotate(0)">Papaya</text><text x="0" y="0" fill="#131300" font-size="14" dominant-baseline="text-before-edge" text-anchor="middle" transform="translate(638.0468750794729, 479) rotate(0)">Coconut</text><text x="0" y="0" fill="#131300" font-size="14" dominant-baseline="text-before-edge" text-anchor="middle" transform="translate(661.140625, 479) rotate(0)">Coffee</text></g><g class="ticks"><path d="M 106.89062690734863,469 L 106.89062690734863,474" fill="none" stroke="#131300" stroke-width="2"/><path d="M 129.98437682787576,469 L 129.98437682787576,474" fill="none" stroke="#131300" stroke-width="2"/><path d="M 153.07812674840292,469 L 153.07812674840292,474" fill="none" stroke="#131300" stroke-width="2"/><path d="M 176.17187666893005,469 L 176.17187666893005,474" fill="none" stroke="#131300" stroke-width="2"/><path d="M 199.2656265894572,469 L 199.2656265894572,474" fill="none" stroke="#131300" stroke-width="2"/><path d="M 222.35937650998434,469 L 222.35937650998434,474" fill="none" stroke="#131300" stroke-width="2"/><path d="M 245.45312643051147,469 L 245.45312643051147,474" fill="none" stroke="#131300" stroke-width="2"/><path d="M 268.54687635103863,469 L 268.54687635103863,474" fill="none" stroke="#131300" stroke-width="2"/><path d="M 291.6406262715658,469 L 291.6406262715658,474" fill="none" stroke="#131300" stroke-width="2"/><path d="M 314.7343761920929,469 L 314.7343761920929,474" fill="none" stroke="#131300" stroke-width="2"/><path d="M 337.82812611262005,469 L 337.82812611262005,474" fill="none" stroke="#131300" stroke-width="2"/><path d="M 360.9218760331472,469 L 360.9218760331472,474" fill="none" stroke="#131300" stroke-width="2"/><path d="M 384.0156259536743,469 L 384.0156259536743,474" fill="none" stroke="#131300" stroke-width="2"/><path d="M 407.1093758742015,469 L 407.1093758742015,474" fill="none" stroke="#131300" stroke-width="2"/><path d="M 430.20312579472863,469 L 430.20312579472863,474" fill="none" stroke="#131300" stroke-width="2"/><path d="M 453.29687571525574,469 L 453.29687571525574,474" fill="none" stroke="#131300" stroke-width="2"/><path d="M 476.3906256357829,469 L 476.3906256357829,474" fill="none" stroke="#131300" stroke-width="2"/><path d="M 499.48437555631006,469 L 499.48437555631006,474" fill="none" stroke="#131300" stroke-width="2"/><path d="M 522.5781254768372,469 L 522.5781254768372,474" fill="none" stroke="#131300" stroke-width="2"/><path d="M 545.6718753973644,469 L 545.6718753973644,474" fill="none" stroke="#131300" stroke-width="2"/><path d="M 568.7656253178915,469 L 568.7656253178915,474" fill="none" stroke="#131300" stroke-width="2"/><path d="M 591.8593752384186,469 L 591.8593752384186,474" fill="none" stroke="#131300" stroke-width="2"/><path d="M 614.9531251589458,469 L 614.9531251589458,474" fill="none" stroke="#131300" stroke-width="2"/><path d="M 638.0468750794729,469 L 638.0468750794729,474" fill="none" stroke="#131300" stroke-width="2"/><path d="M 661.140625,469 L 661.140625,474" fill="none" stroke="#131300" stroke-width="2"/></g></g><g class="left-axis"><g class="axisl-line"><path d="M 67.03125190734863,43.1015625 L 67.03125190734863,467" fill="none" stroke="#131300" stroke-width="2"/></g><g class="label"><text x="0" y="0" fill="#131300" font-size="14" dominant-baseline="middle" text-anchor="end" transform="translate(56.03125190734863, 51.1015625) rotate(0)">100</text><text x="0" y="0" fill="#131300" font-size="14" dominant-baseline="middle" text-anchor="end" transform="translate(56.03125190734863, 91.89140624999999) rotate(0)">90</text><text x="0" y="0" fill="#131300" font-size="14" dominant-baseline="middle" text-anchor="end" transform="translate(56.03125190734863, 132.68124999999998) rotate(0)">80</text><text x="0" y="0" fill="#131300" font-size="14" dominant-baseline="middle" text-anchor="end" transform="translate(56.03125190734863, 173.47109375000002) rotate(0)">70</text><text x="0" y="0" fill="#131300" font-size="14" dominant-baseline="middle" text-anchor="end" transform="translate(56.03125190734863, 214.2609375) rotate(0)">60</text><text x="0" y="0" fill="#131300" font-size="14" dominant-baseline="middle" text-anchor="end" transform="translate(56.03125190734863, 255.05078125) rotate(0)">50</text><text x="0" y="0" fill="#131300" font-size="14" dominant-baseline="middle" text-anchor="end" transform="translate(56.03125190734863, 295.840625) rotate(0)">40</text><text x="0" y="0" fill="#131300" font-size="14" dominant-baseline="middle" text-anchor="end" transform="translate(56.03125190734863, 336.63046875) rotate(0)">30</text><text x="0" y="0" fill="#131300" font-size="14" dominant-baseline="middle" text-anchor="end" transform="translate(56.03125190734863, 377.4203125) rotate(0)">20</text><text x="0" y="0" fill="#131300" font-size="14" dominant-baseline="middle" text-anchor="end" transform="translate(56.03125190734863, 418.21015625) rotate(0)">10</text><text x="0" y="0" fill="#131300" font-size="14" dominant-baseline="middle" text-anchor="end" transform="translate(56.03125190734863, 459) rotate(0)">0</text></g><g class="ticks"><path d="M 66.03125190734863,51.1015625 L 61.03125190734863,51.1015625" fill="none" stroke="#131300" stroke-width="2"/><path d="M 66.03125190734863,91.89140624999999 L 61.03125190734863,91.89140624999999" fill="none" stroke="#131300" stroke-width="2"/><path d="M 66.03125190734863,132.68124999999998 L 61.03125190734863,132.68124999999998" fill="none" stroke="#131300" stroke-width="2"/><path d="M 66.03125190734863,173.47109375000002 L 61.03125190734863,173.47109375000002" fill="none" stroke="#131300" stroke-width="2"/><path d="M 66.03125190734863,214.2609375 L 61.03125190734863,214.2609375" fill="none" stroke="#131300" stroke-width="2"/><path d="M 66.03125190734863,255.05078125 L 61.03125190734863,255.05078125" fill="none" stroke="#131300" stroke-width="2"/><path d="M 66.03125190734863,295.840625 L 61.03125190734863,295.840625" fill="none" stroke="#131300" stroke-width="2"/><path d="M 66.03125190734863,336.63046875 L 61.03125190734863,336.63046875" fill="none" stroke="#131300" stroke-width="2"/><path d="M 66.03125190734863,377.4203125 L 61.03125190734863,377.4203125" fill="none" stroke="#131300" stroke-width="2"/><path d="M 66.03125190734863,418.21015625 L 61.03125190734863,418.21015625" fill="none" stroke="#131300" stroke-width="2"/><path d="M 66.03125190734863,459 L 61.03125190734863,459" fill="none" stroke="#131300" stroke-width="2"/></g><g class="title"><text x="0" y="0" fill="#131300" font-size="16" dominant-baseline="text-before-edge" text-anchor="middle" transform="translate(5, 255.05078125) rotate(270)">Accuracy (%)</text></g></g></g><g class="mermaid-tmp-group"/></svg>