<svg id="my-svg" width="100%" xmlns="http://www.w3.org/2000/svg" xmlns:xlink="http://www.w3.org/1999/xlink" style="max-width: 700px; background-color: transparent;" viewBox="0 0 700 500" role="graphics-document document" aria-roledescription="xychart"><style>#my-svg{font-family:"trebuchet ms",verdana,arial,sans-serif;font-size:16px;fill:#333;}@keyframes edge-animation-frame{from{stroke-dashoffset:0;}}@keyframes dash{to{stroke-dashoffset:0;}}#my-svg .edge-animation-slow{stroke-dasharray:9,5!important;stroke-dashoffset:900;animation:dash 50s linear infinite;stroke-linecap:round;}#my-svg .edge-animation-fast{stroke-dasharray:9,5!important;stroke-dashoffset:900;animation:dash 20s linear infinite;stroke-linecap:round;}#my-svg .error-icon{fill:#552222;}#my-svg .error-text{fill:#552222;stroke:#552222;}#my-svg .edge-thickness-normal{stroke-width:1px;}#my-svg .edge-thickness-thick{stroke-width:3.5px;}#my-svg .edge-pattern-solid{stroke-dasharray:0;}#my-svg .edge-thickness-invisible{stroke-width:0;fill:none;}#my-svg .edge-pattern-dashed{stroke-dasharray:3;}#my-svg .edge-pattern-dotted{stroke-dasharray:2;}#my-svg .marker{fill:#333333;stroke:#333333;}#my-svg .marker.cross{stroke:#333333;}#my-svg svg{font-family:"trebuchet ms",verdana,arial,sans-serif;font-size:16px;}#my-svg p{margin:0;}#my-svg :root{--mermaid-font-family:"trebuchet ms",verdana,arial,sans-serif;}</style><g/><g class="main"><rect width="700" height="500" class="background" fill="white"/><g class="chart-title"><text x="0" y="0" fill="#131300" font-size="20" dominant-baseline="middle" text-anchor="middle" transform="translate(350, 21.5) rotate(0)">Disease Detection Inference Time: Web vs Mobile</text></g><g class="plot"><g class="line-plot-0"><path d="M144.523,422.28L193.156,419.22L241.789,421.26L290.422,418.2L339.055,420.24L387.688,416.16L436.32,417.18L484.953,419.22L533.586,418.2L582.219,420.24L630.852,423.3" fill="none" stroke="#ECECFF" stroke-width="2"/></g><g class="line-plot-1"><path d="M144.523,285.6L193.156,271.32L241.789,279.48L290.422,265.2L339.055,275.4L387.688,259.08L436.32,263.16L484.953,271.32L533.586,265.2L582.219,277.44L630.852,291.72" fill="none" stroke="#8493A6" stroke-width="2"/></g></g><g class="bottom-axis"><g class="axis-line"><path d="M 75.37500190734863,468 L 700,468" fill="none" stroke="#131300" stroke-width="2"/></g><g class="label"><text x="0" y="0" fill="#131300" font-size="14" dominant-baseline="text-before-edge" text-anchor="middle" transform="translate(144.52343940734863, 479) rotate(0)">Apple Scab</text><text x="0" y="0" fill="#131300" font-size="14" dominant-baseline="text-before-edge" text-anchor="middle" transform="translate(193.15625171661378, 479) rotate(0)">Black Rot</text><text x="0" y="0" fill="#131300" font-size="14" dominant-baseline="text-before-edge" text-anchor="middle" transform="translate(241.7890640258789, 479) rotate(0)">Cedar Rust</text><text x="0" y="0" fill="#131300" font-size="14" dominant-baseline="text-before-edge" text-anchor="middle" transform="translate(290.421876335144, 479) rotate(0)">Corn Rust</text><text x="0" y="0" fill="#131300" font-size="14" dominant-baseline="text-before-edge" text-anchor="middle" transform="translate(339.05468864440917, 479) rotate(0)">Grape Black Rot</text><text x="0" y="0" fill="#131300" font-size="14" dominant-baseline="text-before-edge" text-anchor="middle" transform="translate(387.6875009536743, 479) rotate(0)">Potato Early Blight</text><text x="0" y="0" fill="#131300" font-size="14" dominant-baseline="text-before-edge" text-anchor="middle" transform="translate(436.3203132629394, 479) rotate(0)">Potato Late Blight</text><text x="0" y="0" fill="#131300" font-size="14" dominant-baseline="text-before-edge" text-anchor="middle" transform="translate(484.95312557220456, 479) rotate(0)">Tomato Bacterial Spot</text><text x="0" y="0" fill="#131300" font-size="14" dominant-baseline="text-before-edge" text-anchor="middle" transform="translate(533.5859378814697, 479) rotate(0)">Tomato Late Blight</text><text x="0" y="0" fill="#131300" font-size="14" dominant-baseline="text-before-edge" text-anchor="middle" transform="translate(582.2187501907349, 479) rotate(0)">Tomato Mosaic Virus</text><text x="0" y="0" fill="#131300" font-size="14" dominant-baseline="text-before-edge" text-anchor="middle" transform="translate(630.8515625, 479) rotate(0)">Healthy Plant</text></g><g class="ticks"><path d="M 144.52343940734863,469 L 144.52343940734863,474" fill="none" stroke="#131300" stroke-width="2"/><path d="M 193.15625171661378,469 L 193.15625171661378,474" fill="none" stroke="#131300" stroke-width="2"/><path d="M 241.7890640258789,469 L 241.7890640258789,474" fill="none" stroke="#131300" stroke-width="2"/><path d="M 290.421876335144,469 L 290.421876335144,474" fill="none" stroke="#131300" stroke-width="2"/><path d="M 339.05468864440917,469 L 339.05468864440917,474" fill="none" stroke="#131300" stroke-width="2"/><path d="M 387.6875009536743,469 L 387.6875009536743,474" fill="none" stroke="#131300" stroke-width="2"/><path d="M 436.3203132629394,469 L 436.3203132629394,474" fill="none" stroke="#131300" stroke-width="2"/><path d="M 484.95312557220456,469 L 484.95312557220456,474" fill="none" stroke="#131300" stroke-width="2"/><path d="M 533.5859378814697,469 L 533.5859378814697,474" fill="none" stroke="#131300" stroke-width="2"/><path d="M 582.2187501907349,469 L 582.2187501907349,474" fill="none" stroke="#131300" stroke-width="2"/><path d="M 630.8515625,469 L 630.8515625,474" fill="none" stroke="#131300" stroke-width="2"/></g></g><g class="left-axis"><g class="axisl-line"><path d="M 74.37500190734863,43 L 74.37500190734863,467" fill="none" stroke="#131300" stroke-width="2"/></g><g class="label"><text x="0" y="0" fill="#131300" font-size="14" dominant-baseline="middle" text-anchor="end" transform="translate(63.37500190734863, 51) rotate(0)">2000</text><text x="0" y="0" fill="#131300" font-size="14" dominant-baseline="middle" text-anchor="end" transform="translate(63.37500190734863, 91.79999999999998) rotate(0)">1800</text><text x="0" y="0" fill="#131300" font-size="14" dominant-baseline="middle" text-anchor="end" transform="translate(63.37500190734863, 132.6) rotate(0)">1600</text><text x="0" y="0" fill="#131300" font-size="14" dominant-baseline="middle" text-anchor="end" transform="translate(63.37500190734863, 173.4) rotate(0)">1400</text><text x="0" y="0" fill="#131300" font-size="14" dominant-baseline="middle" text-anchor="end" transform="translate(63.37500190734863, 214.20000000000002) rotate(0)">1200</text><text x="0" y="0" fill="#131300" font-size="14" dominant-baseline="middle" text-anchor="end" transform="translate(63.37500190734863, 255) rotate(0)">1000</text><text x="0" y="0" fill="#131300" font-size="14" dominant-baseline="middle" text-anchor="end" transform="translate(63.37500190734863, 295.79999999999995) rotate(0)">800</text><text x="0" y="0" fill="#131300" font-size="14" dominant-baseline="middle" text-anchor="end" transform="translate(63.37500190734863, 336.59999999999997) rotate(0)">600</text><text x="0" y="0" fill="#131300" font-size="14" dominant-baseline="middle" text-anchor="end" transform="translate(63.37500190734863, 377.40000000000003) rotate(0)">400</text><text x="0" y="0" fill="#131300" font-size="14" dominant-baseline="middle" text-anchor="end" transform="translate(63.37500190734863, 418.20000000000005) rotate(0)">200</text><text x="0" y="0" fill="#131300" font-size="14" dominant-baseline="middle" text-anchor="end" transform="translate(63.37500190734863, 459) rotate(0)">0</text></g><g class="ticks"><path d="M 73.37500190734863,51 L 68.37500190734863,51" fill="none" stroke="#131300" stroke-width="2"/><path d="M 73.37500190734863,91.79999999999998 L 68.37500190734863,91.79999999999998" fill="none" stroke="#131300" stroke-width="2"/><path d="M 73.37500190734863,132.6 L 68.37500190734863,132.6" fill="none" stroke="#131300" stroke-width="2"/><path d="M 73.37500190734863,173.4 L 68.37500190734863,173.4" fill="none" stroke="#131300" stroke-width="2"/><path d="M 73.37500190734863,214.20000000000002 L 68.37500190734863,214.20000000000002" fill="none" stroke="#131300" stroke-width="2"/><path d="M 73.37500190734863,255 L 68.37500190734863,255" fill="none" stroke="#131300" stroke-width="2"/><path d="M 73.37500190734863,295.79999999999995 L 68.37500190734863,295.79999999999995" fill="none" stroke="#131300" stroke-width="2"/><path d="M 73.37500190734863,336.59999999999997 L 68.37500190734863,336.59999999999997" fill="none" stroke="#131300" stroke-width="2"/><path d="M 73.37500190734863,377.40000000000003 L 68.37500190734863,377.40000000000003" fill="none" stroke="#131300" stroke-width="2"/><path d="M 73.37500190734863,418.20000000000005 L 68.37500190734863,418.20000000000005" fill="none" stroke="#131300" stroke-width="2"/><path d="M 73.37500190734863,459 L 68.37500190734863,459" fill="none" stroke="#131300" stroke-width="2"/></g><g class="title"><text x="0" y="0" fill="#131300" font-size="16" dominant-baseline="text-before-edge" text-anchor="middle" transform="translate(5, 255) rotate(270)">Inference Time (ms)</text></g></g></g><g class="mermaid-tmp-group"/></svg>