<svg id="my-svg" width="100%" xmlns="http://www.w3.org/2000/svg" xmlns:xlink="http://www.w3.org/1999/xlink" viewBox="0 0 784 1444" style="max-width: 784px; background-color: transparent;" role="graphics-document document" aria-roledescription="gantt"><style>#my-svg{font-family:"trebuchet ms",verdana,arial,sans-serif;font-size:16px;fill:#333;}@keyframes edge-animation-frame{from{stroke-dashoffset:0;}}@keyframes dash{to{stroke-dashoffset:0;}}#my-svg .edge-animation-slow{stroke-dasharray:9,5!important;stroke-dashoffset:900;animation:dash 50s linear infinite;stroke-linecap:round;}#my-svg .edge-animation-fast{stroke-dasharray:9,5!important;stroke-dashoffset:900;animation:dash 20s linear infinite;stroke-linecap:round;}#my-svg .error-icon{fill:#552222;}#my-svg .error-text{fill:#552222;stroke:#552222;}#my-svg .edge-thickness-normal{stroke-width:1px;}#my-svg .edge-thickness-thick{stroke-width:3.5px;}#my-svg .edge-pattern-solid{stroke-dasharray:0;}#my-svg .edge-thickness-invisible{stroke-width:0;fill:none;}#my-svg .edge-pattern-dashed{stroke-dasharray:3;}#my-svg .edge-pattern-dotted{stroke-dasharray:2;}#my-svg .marker{fill:#333333;stroke:#333333;}#my-svg .marker.cross{stroke:#333333;}#my-svg svg{font-family:"trebuchet ms",verdana,arial,sans-serif;font-size:16px;}#my-svg p{margin:0;}#my-svg .mermaid-main-font{font-family:"trebuchet ms",verdana,arial,sans-serif;}#my-svg .exclude-range{fill:#eeeeee;}#my-svg .section{stroke:none;opacity:0.2;}#my-svg .section0{fill:rgba(102, 102, 255, 0.49);}#my-svg .section2{fill:#fff400;}#my-svg .section1,#my-svg .section3{fill:white;opacity:0.2;}#my-svg .sectionTitle0{fill:#333;}#my-svg .sectionTitle1{fill:#333;}#my-svg .sectionTitle2{fill:#333;}#my-svg .sectionTitle3{fill:#333;}#my-svg .sectionTitle{text-anchor:start;font-family:"trebuchet ms",verdana,arial,sans-serif;}#my-svg .grid .tick{stroke:lightgrey;opacity:0.8;shape-rendering:crispEdges;}#my-svg .grid .tick text{font-family:"trebuchet ms",verdana,arial,sans-serif;fill:#333;}#my-svg .grid path{stroke-width:0;}#my-svg .today{fill:none;stroke:red;stroke-width:2px;}#my-svg .task{stroke-width:2;}#my-svg .taskText{text-anchor:middle;font-family:"trebuchet ms",verdana,arial,sans-serif;}#my-svg .taskTextOutsideRight{fill:black;text-anchor:start;font-family:"trebuchet ms",verdana,arial,sans-serif;}#my-svg .taskTextOutsideLeft{fill:black;text-anchor:end;}#my-svg .task.clickable{cursor:pointer;}#my-svg .taskText.clickable{cursor:pointer;fill:#003163!important;font-weight:bold;}#my-svg .taskTextOutsideLeft.clickable{cursor:pointer;fill:#003163!important;font-weight:bold;}#my-svg .taskTextOutsideRight.clickable{cursor:pointer;fill:#003163!important;font-weight:bold;}#my-svg .taskText0,#my-svg .taskText1,#my-svg .taskText2,#my-svg .taskText3{fill:white;}#my-svg .task0,#my-svg .task1,#my-svg .task2,#my-svg .task3{fill:#8a90dd;stroke:#534fbc;}#my-svg .taskTextOutside0,#my-svg .taskTextOutside2{fill:black;}#my-svg .taskTextOutside1,#my-svg .taskTextOutside3{fill:black;}#my-svg .active0,#my-svg .active1,#my-svg .active2,#my-svg .active3{fill:#bfc7ff;stroke:#534fbc;}#my-svg .activeText0,#my-svg .activeText1,#my-svg .activeText2,#my-svg .activeText3{fill:black!important;}#my-svg .done0,#my-svg .done1,#my-svg .done2,#my-svg .done3{stroke:grey;fill:lightgrey;stroke-width:2;}#my-svg .doneText0,#my-svg .doneText1,#my-svg .doneText2,#my-svg .doneText3{fill:black!important;}#my-svg .crit0,#my-svg .crit1,#my-svg .crit2,#my-svg .crit3{stroke:#ff8888;fill:red;stroke-width:2;}#my-svg .activeCrit0,#my-svg .activeCrit1,#my-svg .activeCrit2,#my-svg .activeCrit3{stroke:#ff8888;fill:#bfc7ff;stroke-width:2;}#my-svg .doneCrit0,#my-svg .doneCrit1,#my-svg .doneCrit2,#my-svg .doneCrit3{stroke:#ff8888;fill:lightgrey;stroke-width:2;cursor:pointer;shape-rendering:crispEdges;}#my-svg .milestone{transform:rotate(45deg) scale(0.8,0.8);}#my-svg .milestoneText{font-style:italic;}#my-svg .doneCritText0,#my-svg .doneCritText1,#my-svg .doneCritText2,#my-svg .doneCritText3{fill:black!important;}#my-svg .vert{stroke:navy;}#my-svg .vertText{font-size:15px;text-anchor:middle;fill:navy!important;}#my-svg .activeCritText0,#my-svg .activeCritText1,#my-svg .activeCritText2,#my-svg .activeCritText3{fill:black!important;}#my-svg .titleText{text-anchor:middle;font-size:18px;fill:#333;font-family:"trebuchet ms",verdana,arial,sans-serif;}#my-svg :root{--mermaid-font-family:"trebuchet ms",verdana,arial,sans-serif;}</style><g/><g class="grid" transform="translate(75, 1394)" fill="none" font-size="10" font-family="sans-serif" text-anchor="middle"><path class="domain" stroke="currentColor" d="M0.5,-1359V0.5H634.5V-1359"/><g class="tick" opacity="1" transform="translate(0.5,0)"><line stroke="currentColor" y2="-1359"/><text fill="#000" y="3" dy="1em" stroke="none" font-size="10" style="text-anchor: middle;"> Jan 01</text></g><g class="tick" opacity="1" transform="translate(102.5,0)"><line stroke="currentColor" y2="-1359"/><text fill="#000" y="3" dy="1em" stroke="none" font-size="10" style="text-anchor: middle;"> Feb 01</text></g><g class="tick" opacity="1" transform="translate(197.5,0)"><line stroke="currentColor" y2="-1359"/><text fill="#000" y="3" dy="1em" stroke="none" font-size="10" style="text-anchor: middle;"> Mar 01</text></g><g class="tick" opacity="1" transform="translate(299.5,0)"><line stroke="currentColor" y2="-1359"/><text fill="#000" y="3" dy="1em" stroke="none" font-size="10" style="text-anchor: middle;"> Apr 01</text></g><g class="tick" opacity="1" transform="translate(397.5,0)"><line stroke="currentColor" y2="-1359"/><text fill="#000" y="3" dy="1em" stroke="none" font-size="10" style="text-anchor: middle;"> May 01</text></g><g class="tick" opacity="1" transform="translate(499.5,0)"><line stroke="currentColor" y2="-1359"/><text fill="#000" y="3" dy="1em" stroke="none" font-size="10" style="text-anchor: middle;"> Jun 01</text></g><g class="tick" opacity="1" transform="translate(598.5,0)"><line stroke="currentColor" y2="-1359"/><text fill="#000" y="3" dy="1em" stroke="none" font-size="10" style="text-anchor: middle;"> Jul 01</text></g></g><g><rect x="0" y="48" width="746.5" height="24" class="section section0"/><rect x="0" y="72" width="746.5" height="24" class="section section0"/><rect x="0" y="96" width="746.5" height="24" class="section section0"/><rect x="0" y="120" width="746.5" height="24" class="section section1"/><rect x="0" y="144" width="746.5" height="24" class="section section1"/><rect x="0" y="168" width="746.5" height="24" class="section section1"/><rect x="0" y="192" width="746.5" height="24" class="section section1"/><rect x="0" y="216" width="746.5" height="24" class="section section2"/><rect x="0" y="240" width="746.5" height="24" class="section section2"/><rect x="0" y="264" width="746.5" height="24" class="section section2"/><rect x="0" y="288" width="746.5" height="24" class="section section2"/><rect x="0" y="312" width="746.5" height="24" class="section section3"/><rect x="0" y="336" width="746.5" height="24" class="section section3"/><rect x="0" y="360" width="746.5" height="24" class="section section3"/><rect x="0" y="384" width="746.5" height="24" class="section section3"/><rect x="0" y="408" width="746.5" height="24" class="section section0"/><rect x="0" y="480" width="746.5" height="24" class="section section0"/><rect x="0" y="432" width="746.5" height="24" class="section section0"/><rect x="0" y="504" width="746.5" height="24" class="section section0"/><rect x="0" y="456" width="746.5" height="24" class="section section0"/><rect x="0" y="528" width="746.5" height="24" class="section section0"/><rect x="0" y="552" width="746.5" height="24" class="section section0"/><rect x="0" y="576" width="746.5" height="24" class="section section1"/><rect x="0" y="744" width="746.5" height="24" class="section section2"/><rect x="0" y="600" width="746.5" height="24" class="section section1"/><rect x="0" y="624" width="746.5" height="24" class="section section1"/><rect x="0" y="768" width="746.5" height="24" class="section section2"/><rect x="0" y="648" width="746.5" height="24" class="section section1"/><rect x="0" y="792" width="746.5" height="24" class="section section2"/><rect x="0" y="672" width="746.5" height="24" class="section section1"/><rect x="0" y="816" width="746.5" height="24" class="section section2"/><rect x="0" y="696" width="746.5" height="24" class="section section1"/><rect x="0" y="840" width="746.5" height="24" class="section section2"/><rect x="0" y="720" width="746.5" height="24" class="section section1"/><rect x="0" y="864" width="746.5" height="24" class="section section2"/><rect x="0" y="888" width="746.5" height="24" class="section section2"/><rect x="0" y="912" width="746.5" height="24" class="section section3"/><rect x="0" y="936" width="746.5" height="24" class="section section3"/><rect x="0" y="960" width="746.5" height="24" class="section section3"/><rect x="0" y="984" width="746.5" height="24" class="section section3"/><rect x="0" y="1008" width="746.5" height="24" class="section section0"/><rect x="0" y="1032" width="746.5" height="24" class="section section0"/><rect x="0" y="1056" width="746.5" height="24" class="section section0"/><rect x="0" y="1080" width="746.5" height="24" class="section section0"/><rect x="0" y="1104" width="746.5" height="24" class="section section0"/><rect x="0" y="1128" width="746.5" height="24" class="section section1"/><rect x="0" y="1152" width="746.5" height="24" class="section section1"/><rect x="0" y="1176" width="746.5" height="24" class="section section1"/><rect x="0" y="1200" width="746.5" height="24" class="section section1"/><rect x="0" y="1224" width="746.5" height="24" class="section section2"/><rect x="0" y="1248" width="746.5" height="24" class="section section2"/><rect x="0" y="1272" width="746.5" height="24" class="section section2"/><rect x="0" y="1296" width="746.5" height="24" class="section section3"/><rect x="0" y="1320" width="746.5" height="24" class="section section3"/><rect x="0" y="1344" width="746.5" height="24" class="section section3"/><rect x="0" y="1368" width="746.5" height="24" class="section section3"/></g><g><rect id="task1" rx="3" ry="3" x="75" y="50" width="10" height="20" transform-origin="80px 60px" class="task task0"/><rect id="task2" rx="3" ry="3" x="78" y="74" width="7" height="20" transform-origin="81.5px 84px" class="task task0"/><rect id="task3" rx="3" ry="3" x="85" y="98" width="10" height="20" transform-origin="90px 108px" class="task task0"/><rect id="task4" rx="3" ry="3" x="98" y="122" width="16" height="20" transform-origin="106px 132px" class="task task1"/><rect id="task5" rx="3" ry="3" x="105" y="146" width="23" height="20" transform-origin="116.5px 156px" class="task task1"/><rect id="task6" rx="3" ry="3" x="111" y="170" width="17" height="20" transform-origin="119.5px 180px" class="task task1"/><rect id="task7" rx="3" ry="3" x="121" y="194" width="16" height="20" transform-origin="129px 204px" class="task task1"/><rect id="task8" rx="3" ry="3" x="137" y="218" width="33" height="20" transform-origin="153.5px 228px" class="task task2"/><rect id="task9" rx="3" ry="3" x="144" y="242" width="23" height="20" transform-origin="155.5px 252px" class="task task2"/><rect id="task10" rx="3" ry="3" x="154" y="266" width="16" height="20" transform-origin="162px 276px" class="task task2"/><rect id="task11" rx="3" ry="3" x="164" y="290" width="33" height="20" transform-origin="180.5px 300px" class="task task2"/><rect id="task12" rx="3" ry="3" x="190" y="314" width="49" height="20" transform-origin="214.5px 324px" class="task task3"/><rect id="task13" rx="3" ry="3" x="213" y="338" width="23" height="20" transform-origin="224.5px 348px" class="task task3"/><rect id="task14" rx="3" ry="3" x="239" y="362" width="33" height="20" transform-origin="255.5px 372px" class="task task3"/><rect id="task15" rx="3" ry="3" x="256" y="386" width="23" height="20" transform-origin="267.5px 396px" class="task task3"/><rect id="task16" rx="3" ry="3" x="285" y="410" width="23" height="20" transform-origin="296.5px 420px" class="task task0"/><rect id="task19" rx="3" ry="3" x="285" y="482" width="33" height="20" transform-origin="301.5px 492px" class="task task0"/><rect id="task17" rx="3" ry="3" x="308" y="434" width="33" height="20" transform-origin="324.5px 444px" class="task task0"/><rect id="task20" rx="3" ry="3" x="318" y="506" width="46" height="20" transform-origin="341px 516px" class="task task0"/><rect id="task18" rx="3" ry="3" x="335" y="458" width="16" height="20" transform-origin="343px 468px" class="task task0"/><rect id="task21" rx="3" ry="3" x="361" y="530" width="23" height="20" transform-origin="372.5px 540px" class="task task0"/><rect id="task22" rx="3" ry="3" x="377" y="554" width="33" height="20" transform-origin="393.5px 564px" class="task task0"/><rect id="task23" rx="3" ry="3" x="403" y="578" width="10" height="20" transform-origin="408px 588px" class="task task1"/><rect id="task30" rx="3" ry="3" x="403" y="746" width="17" height="20" transform-origin="411.5px 756px" class="task task2"/><rect id="task24" rx="3" ry="3" x="413" y="602" width="23" height="20" transform-origin="424.5px 612px" class="task task1"/><rect id="task25" rx="3" ry="3" x="420" y="626" width="16" height="20" transform-origin="428px 636px" class="task task1"/><rect id="task31" rx="3" ry="3" x="420" y="770" width="16" height="20" transform-origin="428px 780px" class="task task2"/><rect id="task26" rx="3" ry="3" x="430" y="650" width="16" height="20" transform-origin="438px 660px" class="task task1"/><rect id="task32" rx="3" ry="3" x="430" y="794" width="16" height="20" transform-origin="438px 804px" class="task task2"/><rect id="task27" rx="3" ry="3" x="436" y="674" width="23" height="20" transform-origin="447.5px 684px" class="task task1"/><rect id="task33" rx="3" ry="3" x="436" y="818" width="17" height="20" transform-origin="444.5px 828px" class="task task2"/><rect id="task28" rx="3" ry="3" x="443" y="698" width="10" height="20" transform-origin="448px 708px" class="task task1"/><rect id="task34" rx="3" ry="3" x="446" y="842" width="23" height="20" transform-origin="457.5px 852px" class="task task2"/><rect id="task29" rx="3" ry="3" x="453" y="722" width="16" height="20" transform-origin="461px 732px" class="task task1"/><rect id="task35" rx="3" ry="3" x="453" y="866" width="23" height="20" transform-origin="464.5px 876px" class="task task2"/><rect id="task36" rx="3" ry="3" x="463" y="890" width="16" height="20" transform-origin="471px 900px" class="task task2"/><rect id="task37" rx="3" ry="3" x="486" y="914" width="23" height="20" transform-origin="497.5px 924px" class="task task3"/><rect id="task38" rx="3" ry="3" x="495" y="938" width="17" height="20" transform-origin="503.5px 948px" class="task task3"/><rect id="task39" rx="3" ry="3" x="502" y="962" width="16" height="20" transform-origin="510px 972px" class="task task3"/><rect id="task40" rx="3" ry="3" x="509" y="986" width="23" height="20" transform-origin="520.5px 996px" class="task task3"/><rect id="task41" rx="3" ry="3" x="518" y="1010" width="33" height="20" transform-origin="534.5px 1020px" class="task task0"/><rect id="task42" rx="3" ry="3" x="535" y="1034" width="23" height="20" transform-origin="546.5px 1044px" class="task task0"/><rect id="task43" rx="3" ry="3" x="551" y="1058" width="23" height="20" transform-origin="562.5px 1068px" class="task task0"/><rect id="task44" rx="3" ry="3" x="561" y="1082" width="23" height="20" transform-origin="572.5px 1092px" class="task task0"/><rect id="task45" rx="3" ry="3" x="578" y="1106" width="16" height="20" transform-origin="586px 1116px" class="task task0"/><rect id="task46" rx="3" ry="3" x="587" y="1130" width="17" height="20" transform-origin="595.5px 1140px" class="task task1"/><rect id="task47" rx="3" ry="3" x="594" y="1154" width="10" height="20" transform-origin="599px 1164px" class="task task1"/><rect id="task48" rx="3" ry="3" x="597" y="1178" width="10" height="20" transform-origin="602px 1188px" class="task task1"/><rect id="task49" rx="3" ry="3" x="604" y="1202" width="16" height="20" transform-origin="612px 1212px" class="task task1"/><rect id="task50" rx="3" ry="3" x="620" y="1226" width="10" height="20" transform-origin="625px 1236px" class="task task2"/><rect id="task51" rx="3" ry="3" x="630" y="1250" width="7" height="20" transform-origin="633.5px 1260px" class="task task2"/><rect id="task52" rx="3" ry="3" x="627" y="1274" width="20" height="20" transform-origin="637px 1284px" class="task milestone  task2"/><rect id="task53" rx="3" ry="3" x="640" y="1298" width="16" height="20" transform-origin="648px 1308px" class="task task3"/><rect id="task54" rx="3" ry="3" x="647" y="1322" width="32" height="20" transform-origin="663px 1332px" class="task task3"/><rect id="task55" rx="3" ry="3" x="653" y="1346" width="23" height="20" transform-origin="664.5px 1356px" class="task task3"/><rect id="task56" rx="3" ry="3" x="663" y="1370" width="46" height="20" transform-origin="686px 1380px" class="task task3"/><text id="task1-text" font-size="11" x="90" y="63.5" class="taskTextOutsideRight taskTextOutside0  width-73.15966796875">Project Kickoff                  </text><text id="task2-text" font-size="11" x="90" y="87.5" class="taskTextOutsideRight taskTextOutside0  width-79.515625">Team Formation                   </text><text id="task3-text" font-size="11" x="100" y="111.5" class="taskTextOutsideRight taskTextOutside0  width-132.140625">Tools &amp; Environment Setup        </text><text id="task4-text" font-size="11" x="119" y="135.5" class="taskTextOutsideRight taskTextOutside1  width-105.140625">Stakeholder Meetings             </text><text id="task5-text" font-size="11" x="133" y="159.5" class="taskTextOutsideRight taskTextOutside1  width-122.453125">Functional Requirements          </text><text id="task6-text" font-size="11" x="133" y="183.5" class="taskTextOutsideRight taskTextOutside1  width-145.4375">Non-Functional Requirements      </text><text id="task7-text" font-size="11" x="142" y="207.5" class="taskTextOutsideRight taskTextOutside1  width-85.40625">Use Case Analysis                </text><text id="task8-text" font-size="11" x="175" y="231.5" class="taskTextOutsideRight taskTextOutside2  width-97">Architecture Design              </text><text id="task9-text" font-size="11" x="172" y="255.5" class="taskTextOutsideRight taskTextOutside2  width-80.21875">Database Design                  </text><text id="task10-text" font-size="11" x="175" y="279.5" class="taskTextOutsideRight taskTextOutside2  width-50.875">API Design                       </text><text id="task11-text" font-size="11" x="202" y="303.5" class="taskTextOutsideRight taskTextOutside2  width-54.8125">UI Mockups                       </text><text id="task12-text" font-size="11" x="244" y="327.5" class="taskTextOutsideRight taskTextOutside3  width-75.8125">Data Collection                  </text><text id="task13-text" font-size="11" x="241" y="351.5" class="taskTextOutsideRight taskTextOutside3  width-75.0625">Data Validation                  </text><text id="task14-text" font-size="11" x="277" y="375.5" class="taskTextOutsideRight taskTextOutside3  width-68.265625">Data Cleaning                    </text><text id="task15-text" font-size="11" x="284" y="399.5" class="taskTextOutsideRight taskTextOutside3  width-100.046875">Data Transformation              </text><text id="task16-text" font-size="11" x="313" y="423.5" class="taskTextOutsideRight taskTextOutside0  width-113.953125">Crop Model - Data Prep           </text><text id="task19-text" font-size="11" x="323" y="495.5" class="taskTextOutsideRight taskTextOutside0  width-127.640625">Disease Model - Data Prep        </text><text id="task17-text" font-size="11" x="346" y="447.5" class="taskTextOutsideRight taskTextOutside0  width-104.796875">Crop Model - Training            </text><text id="task20-text" font-size="11" x="369" y="519.5" class="taskTextOutsideRight taskTextOutside0  width-118.484375">Disease Model - Training         </text><text id="task18-text" font-size="11" x="356" y="471.5" class="taskTextOutsideRight taskTextOutside0  width-117.453125">Crop Model - Evaluation          </text><text id="task21-text" font-size="11" x="389" y="543.5" class="taskTextOutsideRight taskTextOutside0  width-131.140625">Disease Model - Evaluation       </text><text id="task22-text" font-size="11" x="415" y="567.5" class="taskTextOutsideRight taskTextOutside0  width-96.125">Model Optimization               </text><text id="task23-text" font-size="11" x="418" y="591.5" class="taskTextOutsideRight taskTextOutside1  width-114.09375">Flask Framework Setup            </text><text id="task30-text" font-size="11" x="425" y="759.5" class="taskTextOutsideRight taskTextOutside2  width-64.390625">Landing Page                     </text><text id="task24-text" font-size="11" x="441" y="615.5" class="taskTextOutsideRight taskTextOutside1  width-109.8125">Route Implementation             </text><text id="task25-text" font-size="11" x="441" y="639.5" class="taskTextOutsideRight taskTextOutside1  width-129.5">Crop Recommendation API          </text><text id="task31-text" font-size="11" x="441" y="783.5" class="taskTextOutsideRight taskTextOutside2  width-77.515625">Crop Form Page                   </text><text id="task26-text" font-size="11" x="451" y="663.5" class="taskTextOutsideRight taskTextOutside1  width-63.828125">Fertilizer API                   </text><text id="task32-text" font-size="11" x="451" y="807.5" class="taskTextOutsideRight taskTextOutside2  width-100.0625">Fertilizer Form Page             </text><text id="task27-text" font-size="11" x="464" y="687.5" class="taskTextOutsideRight taskTextOutside1  width-106.25">Disease Detection API             </text><text id="task33-text" font-size="11" x="458" y="831.5" class="taskTextOutsideRight taskTextOutside2  width-91.203125">Disease Form Page                </text><text id="task28-text" font-size="11" x="458" y="711.5" class="taskTextOutsideRight taskTextOutside1  width-117.421875">Weather API Integration          </text><text id="task34-text" font-size="11" x="474" y="855.5" class="taskTextOutsideRight taskTextOutside2  width-60.71875">Result Pages                     </text><text id="task29-text" font-size="11" x="474" y="735.5" class="taskTextOutsideRight taskTextOutside1  width-70.96875">Error Handling                   </text><text id="task35-text" font-size="11" x="481" y="879.5" class="taskTextOutsideRight taskTextOutside2  width-53.46875">CSS Styling                      </text><text id="task36-text" font-size="11" x="484" y="903.5" class="taskTextOutsideRight taskTextOutside2  width-120.796875">JavaScript Enhancement           </text><text id="task37-text" font-size="11" x="514" y="927.5" class="taskTextOutsideRight taskTextOutside3  width-147.375">Backend-Frontend Integration     </text><text id="task38-text" font-size="11" x="517" y="951.5" class="taskTextOutsideRight taskTextOutside3  width-86.828125">Model Integration                </text><text id="task39-text" font-size="11" x="523" y="975.5" class="taskTextOutsideRight taskTextOutside3  width-53.3125">API Testing                      </text><text id="task40-text" font-size="11" x="537" y="999.5" class="taskTextOutsideRight taskTextOutside3  width-92.03125">End-to-End Testing               </text><text id="task41-text" font-size="11" x="556" y="1023.5" class="taskTextOutsideRight taskTextOutside0  width-58.265625">Unit Testing                     </text><text id="task42-text" font-size="11" x="563" y="1047.5" class="taskTextOutsideRight taskTextOutside0  width-92.046875">Integration Testing              </text><text id="task43-text" font-size="11" x="579" y="1071.5" class="taskTextOutsideRight taskTextOutside0  width-72.28125">System Testing                   </text><text id="task44-text" font-size="11" x="589" y="1095.5" class="taskTextOutsideRight taskTextOutside0  width-119.296875">User Acceptance Testing          </text><text id="task45-text" font-size="11" x="599" y="1119.5" class="taskTextOutsideRight taskTextOutside0  width-100.125">Performance Testing              </text><text id="task46-text" font-size="11" x="609" y="1143.5" class="taskTextOutsideRight taskTextOutside1  width-118.234375">Production Environment           </text><text id="task47-text" font-size="11" x="609" y="1167.5" class="taskTextOutsideRight taskTextOutside1  width-95.359375">Deployment Scripts               </text><text id="task48-text" font-size="11" x="612" y="1191.5" class="taskTextOutsideRight taskTextOutside1  width-109.953125">Security Configuration          </text><text id="task49-text" font-size="11" x="625" y="1215.5" class="taskTextOutsideRight taskTextOutside1  width-74.8125">Documentation                    </text><text id="task50-text" font-size="11" x="635" y="1239.5" class="taskTextOutsideRight taskTextOutside2  width-97.890625">Staging Deployment               </text><text id="task51-text" font-size="11" x="625" y="1263.5" class="taskTextOutsideLeft taskTextOutside2">Production Deployment            </text><text id="task52-text" font-size="11" x="652" y="1287.5" class="taskTextOutsideRight taskTextOutside2  milestoneText width-37.484375">Go-Live                          </text><text id="task53-text" font-size="11" x="661" y="1311.5" class="taskTextOutsideRight taskTextOutside3  width-83.171875">Monitoring Setup                 </text><text id="task54-text" font-size="11" x="684" y="1335.5" class="taskTextOutsideRight taskTextOutside3  width-45.953125">Bug Fixes                        </text><text id="task55-text" font-size="11" x="648" y="1359.5" class="taskTextOutsideLeft taskTextOutside3">Performance Tuning               </text><text id="task56-text" font-size="11" x="658" y="1383.5" class="taskTextOutsideLeft taskTextOutside3">User Feedback Collection         </text></g><g><text dy="0em" x="10" y="86" font-size="11" class="sectionTitle sectionTitle0"><tspan alignment-baseline="central" x="10">Project Initiation</tspan></text><text dy="0em" x="10" y="170" font-size="11" class="sectionTitle sectionTitle1"><tspan alignment-baseline="central" x="10">Requirements &amp; Analysis</tspan></text><text dy="0em" x="10" y="266" font-size="11" class="sectionTitle sectionTitle2"><tspan alignment-baseline="central" x="10">System Design</tspan></text><text dy="0em" x="10" y="362" font-size="11" class="sectionTitle sectionTitle3"><tspan alignment-baseline="central" x="10">Data Engineering</tspan></text><text dy="0em" x="10" y="494" font-size="11" class="sectionTitle sectionTitle0"><tspan alignment-baseline="central" x="10">ML Model Development</tspan></text><text dy="0em" x="10" y="662" font-size="11" class="sectionTitle sectionTitle1"><tspan alignment-baseline="central" x="10">Backend Development</tspan></text><text dy="0em" x="10" y="830" font-size="11" class="sectionTitle sectionTitle2"><tspan alignment-baseline="central" x="10">Frontend Development</tspan></text><text dy="0em" x="10" y="962" font-size="11" class="sectionTitle sectionTitle3"><tspan alignment-baseline="central" x="10">Integration</tspan></text><text dy="0em" x="10" y="1070" font-size="11" class="sectionTitle sectionTitle0"><tspan alignment-baseline="central" x="10">Testing Phase</tspan></text><text dy="0em" x="10" y="1178" font-size="11" class="sectionTitle sectionTitle1"><tspan alignment-baseline="central" x="10">Deployment Preparation</tspan></text><text dy="0em" x="10" y="1262" font-size="11" class="sectionTitle sectionTitle2"><tspan alignment-baseline="central" x="10">Deployment &amp; Launch</tspan></text><text dy="0em" x="10" y="1346" font-size="11" class="sectionTitle sectionTitle3"><tspan alignment-baseline="central" x="10">Post-Launch</tspan></text></g><g class="today"><line x1="2313" x2="2313" y1="25" y2="1419" class="today"/></g><text x="392" y="25" class="titleText">Gantt Chart - Hariyali (BHOOMI) Project Implementation</text></svg>