<svg id="my-svg" width="100%" xmlns="http://www.w3.org/2000/svg" xmlns:xlink="http://www.w3.org/1999/xlink" style="max-width: 700px; background-color: transparent;" viewBox="0 0 700 500" role="graphics-document document" aria-roledescription="xychart"><style>#my-svg{font-family:"trebuchet ms",verdana,arial,sans-serif;font-size:16px;fill:#333;}@keyframes edge-animation-frame{from{stroke-dashoffset:0;}}@keyframes dash{to{stroke-dashoffset:0;}}#my-svg .edge-animation-slow{stroke-dasharray:9,5!important;stroke-dashoffset:900;animation:dash 50s linear infinite;stroke-linecap:round;}#my-svg .edge-animation-fast{stroke-dasharray:9,5!important;stroke-dashoffset:900;animation:dash 20s linear infinite;stroke-linecap:round;}#my-svg .error-icon{fill:#552222;}#my-svg .error-text{fill:#552222;stroke:#552222;}#my-svg .edge-thickness-normal{stroke-width:1px;}#my-svg .edge-thickness-thick{stroke-width:3.5px;}#my-svg .edge-pattern-solid{stroke-dasharray:0;}#my-svg .edge-thickness-invisible{stroke-width:0;fill:none;}#my-svg .edge-pattern-dashed{stroke-dasharray:3;}#my-svg .edge-pattern-dotted{stroke-dasharray:2;}#my-svg .marker{fill:#333333;stroke:#333333;}#my-svg .marker.cross{stroke:#333333;}#my-svg svg{font-family:"trebuchet ms",verdana,arial,sans-serif;font-size:16px;}#my-svg p{margin:0;}#my-svg :root{--mermaid-font-family:"trebuchet ms",verdana,arial,sans-serif;}</style><g/><g class="main"><rect width="700" height="500" class="background" fill="white"/><g class="chart-title"><text x="0" y="0" fill="#131300" font-size="20" dominant-baseline="middle" text-anchor="middle" transform="translate(350, 21.55078125) rotate(0)">System Response Time Under Varying User Load</text></g><g class="plot"><g class="line-plot-0"><path d="M98.375,446.763L170.703,444.316L243.031,441.052L315.359,430.447L387.688,414.131L460.016,389.657L532.344,344.788L604.672,230.577L677,91.891" fill="none" stroke="#ECECFF" stroke-width="2"/></g><g class="bar-plot-1"><rect x="76.52500190734864" y="446.763046875" width="43.699999999999996" height="20.236953125000014" fill="#8493A6" stroke="#8493A6" stroke-width="0"/><rect x="148.85312666893006" y="444.31565625" width="43.699999999999996" height="22.684343749999982" fill="#8493A6" stroke="#8493A6" stroke-width="0"/><rect x="221.18125143051148" y="441.05246874999995" width="43.699999999999996" height="25.947531250000054" fill="#8493A6" stroke="#8493A6" stroke-width="0"/><rect x="293.5093761920929" y="430.44710937499997" width="43.699999999999996" height="36.55289062500003" fill="#8493A6" stroke="#8493A6" stroke-width="0"/><rect x="365.8375009536743" y="414.131171875" width="43.699999999999996" height="52.86882812499999" fill="#8493A6" stroke="#8493A6" stroke-width="0"/><rect x="438.1656257152557" y="389.657265625" width="43.699999999999996" height="77.34273437500002" fill="#8493A6" stroke="#8493A6" stroke-width="0"/><rect x="510.49375047683714" y="344.7884375" width="43.699999999999996" height="122.21156250000001" fill="#8493A6" stroke="#8493A6" stroke-width="0"/><rect x="582.8218752384186" y="230.57687499999997" width="43.699999999999996" height="236.42312500000003" fill="#8493A6" stroke="#8493A6" stroke-width="0"/><rect x="655.15" y="91.89140624999999" width="43.699999999999996" height="375.10859375" fill="#8493A6" stroke="#8493A6" stroke-width="0"/></g></g><g class="bottom-axis"><g class="axis-line"><path d="M 75.37500190734863,468 L 700,468" fill="none" stroke="#131300" stroke-width="2"/></g><g class="label"><text x="0" y="0" fill="#131300" font-size="14" dominant-baseline="text-before-edge" text-anchor="middle" transform="translate(98.37500190734863, 479) rotate(0)">1</text><text x="0" y="0" fill="#131300" font-size="14" dominant-baseline="text-before-edge" text-anchor="middle" transform="translate(170.70312666893005, 479) rotate(0)">5</text><text x="0" y="0" fill="#131300" font-size="14" dominant-baseline="text-before-edge" text-anchor="middle" transform="translate(243.03125143051147, 479) rotate(0)">10</text><text x="0" y="0" fill="#131300" font-size="14" dominant-baseline="text-before-edge" text-anchor="middle" transform="translate(315.3593761920929, 479) rotate(0)">25</text><text x="0" y="0" fill="#131300" font-size="14" dominant-baseline="text-before-edge" text-anchor="middle" transform="translate(387.6875009536743, 479) rotate(0)">50</text><text x="0" y="0" fill="#131300" font-size="14" dominant-baseline="text-before-edge" text-anchor="middle" transform="translate(460.01562571525574, 479) rotate(0)">100</text><text x="0" y="0" fill="#131300" font-size="14" dominant-baseline="text-before-edge" text-anchor="middle" transform="translate(532.3437504768372, 479) rotate(0)">200</text><text x="0" y="0" fill="#131300" font-size="14" dominant-baseline="text-before-edge" text-anchor="middle" transform="translate(604.6718752384186, 479) rotate(0)">500</text><text x="0" y="0" fill="#131300" font-size="14" dominant-baseline="text-before-edge" text-anchor="middle" transform="translate(677, 479) rotate(0)">1000</text></g><g class="ticks"><path d="M 98.37500190734863,469 L 98.37500190734863,474" fill="none" stroke="#131300" stroke-width="2"/><path d="M 170.70312666893005,469 L 170.70312666893005,474" fill="none" stroke="#131300" stroke-width="2"/><path d="M 243.03125143051147,469 L 243.03125143051147,474" fill="none" stroke="#131300" stroke-width="2"/><path d="M 315.3593761920929,469 L 315.3593761920929,474" fill="none" stroke="#131300" stroke-width="2"/><path d="M 387.6875009536743,469 L 387.6875009536743,474" fill="none" stroke="#131300" stroke-width="2"/><path d="M 460.01562571525574,469 L 460.01562571525574,474" fill="none" stroke="#131300" stroke-width="2"/><path d="M 532.3437504768372,469 L 532.3437504768372,474" fill="none" stroke="#131300" stroke-width="2"/><path d="M 604.6718752384186,469 L 604.6718752384186,474" fill="none" stroke="#131300" stroke-width="2"/><path d="M 677,469 L 677,474" fill="none" stroke="#131300" stroke-width="2"/></g></g><g class="left-axis"><g class="axisl-line"><path d="M 74.37500190734863,43.1015625 L 74.37500190734863,467" fill="none" stroke="#131300" stroke-width="2"/></g><g class="label"><text x="0" y="0" fill="#131300" font-size="14" dominant-baseline="middle" text-anchor="end" transform="translate(63.37500190734863, 51.1015625) rotate(0)">5000</text><text x="0" y="0" fill="#131300" font-size="14" dominant-baseline="middle" text-anchor="end" transform="translate(63.37500190734863, 91.89140624999999) rotate(0)">4500</text><text x="0" y="0" fill="#131300" font-size="14" dominant-baseline="middle" text-anchor="end" transform="translate(63.37500190734863, 132.68124999999998) rotate(0)">4000</text><text x="0" y="0" fill="#131300" font-size="14" dominant-baseline="middle" text-anchor="end" transform="translate(63.37500190734863, 173.47109375000002) rotate(0)">3500</text><text x="0" y="0" fill="#131300" font-size="14" dominant-baseline="middle" text-anchor="end" transform="translate(63.37500190734863, 214.2609375) rotate(0)">3000</text><text x="0" y="0" fill="#131300" font-size="14" dominant-baseline="middle" text-anchor="end" transform="translate(63.37500190734863, 255.05078125) rotate(0)">2500</text><text x="0" y="0" fill="#131300" font-size="14" dominant-baseline="middle" text-anchor="end" transform="translate(63.37500190734863, 295.840625) rotate(0)">2000</text><text x="0" y="0" fill="#131300" font-size="14" dominant-baseline="middle" text-anchor="end" transform="translate(63.37500190734863, 336.63046875) rotate(0)">1500</text><text x="0" y="0" fill="#131300" font-size="14" dominant-baseline="middle" text-anchor="end" transform="translate(63.37500190734863, 377.4203125) rotate(0)">1000</text><text x="0" y="0" fill="#131300" font-size="14" dominant-baseline="middle" text-anchor="end" transform="translate(63.37500190734863, 418.21015625) rotate(0)">500</text><text x="0" y="0" fill="#131300" font-size="14" dominant-baseline="middle" text-anchor="end" transform="translate(63.37500190734863, 459) rotate(0)">0</text></g><g class="ticks"><path d="M 73.37500190734863,51.1015625 L 68.37500190734863,51.1015625" fill="none" stroke="#131300" stroke-width="2"/><path d="M 73.37500190734863,91.89140624999999 L 68.37500190734863,91.89140624999999" fill="none" stroke="#131300" stroke-width="2"/><path d="M 73.37500190734863,132.68124999999998 L 68.37500190734863,132.68124999999998" fill="none" stroke="#131300" stroke-width="2"/><path d="M 73.37500190734863,173.47109375000002 L 68.37500190734863,173.47109375000002" fill="none" stroke="#131300" stroke-width="2"/><path d="M 73.37500190734863,214.2609375 L 68.37500190734863,214.2609375" fill="none" stroke="#131300" stroke-width="2"/><path d="M 73.37500190734863,255.05078125 L 68.37500190734863,255.05078125" fill="none" stroke="#131300" stroke-width="2"/><path d="M 73.37500190734863,295.840625 L 68.37500190734863,295.840625" fill="none" stroke="#131300" stroke-width="2"/><path d="M 73.37500190734863,336.63046875 L 68.37500190734863,336.63046875" fill="none" stroke="#131300" stroke-width="2"/><path d="M 73.37500190734863,377.4203125 L 68.37500190734863,377.4203125" fill="none" stroke="#131300" stroke-width="2"/><path d="M 73.37500190734863,418.21015625 L 68.37500190734863,418.21015625" fill="none" stroke="#131300" stroke-width="2"/><path d="M 73.37500190734863,459 L 68.37500190734863,459" fill="none" stroke="#131300" stroke-width="2"/></g><g class="title"><text x="0" y="0" fill="#131300" font-size="16" dominant-baseline="text-before-edge" text-anchor="middle" transform="translate(5, 255.05078125) rotate(270)">Response Time (ms)</text></g></g></g><g class="mermaid-tmp-group"/></svg>